<?xml version="1.0" encoding="UTF-8" standalone="no"?>
<svg
   xmlns:dc="http://purl.org/dc/elements/1.1/"
   xmlns:cc="http://creativecommons.org/ns#"
   xmlns:rdf="http://www.w3.org/1999/02/22-rdf-syntax-ns#"
   xmlns:svg="http://www.w3.org/2000/svg"
   xmlns="http://www.w3.org/2000/svg"
   xmlns:sodipodi="http://sodipodi.sourceforge.net/DTD/sodipodi-0.dtd"
   xmlns:inkscape="http://www.inkscape.org/namespaces/inkscape"
   inkscape:version="1.0 (4035a4fb49, 2020-05-01)"
   sodipodi:docname="a1.svg"
   version="1.1"
   viewBox="0 0 941.40412 435.42027"
   height="435.42027"
   width="941.40412"
   data-name="Layer 1"
   id="e18ebc6e-17e0-463f-bef8-5e03a9b69a2f">
  <metadata
     id="metadata105">
    <rdf:RDF>
      <cc:Work
         rdf:about="">
        <dc:format>image/svg+xml</dc:format>
        <dc:type
           rdf:resource="http://purl.org/dc/dcmitype/StillImage" />
      </cc:Work>
    </rdf:RDF>
  </metadata>
  <defs
     id="defs103" />
  <sodipodi:namedview
     inkscape:current-layer="e18ebc6e-17e0-463f-bef8-5e03a9b69a2f"
     inkscape:window-maximized="1"
     inkscape:window-y="-9"
     inkscape:window-x="-9"
     inkscape:cy="217.71013"
     inkscape:cx="470.70206"
     inkscape:zoom="1.2831896"
     showgrid="false"
     id="namedview101"
     inkscape:window-height="1001"
     inkscape:window-width="1920"
     inkscape:pageshadow="2"
     inkscape:pageopacity="0"
     guidetolerance="10"
     gridtolerance="10"
     objecttolerance="10"
     borderopacity="1"
     bordercolor="#666666"
     pagecolor="#ffffff" />
  <title
     id="title2">online_test</title>
  <path
     id="path4"
     fill="#3f3d56"
     transform="translate(-129.29794 -232.28986)"
     d="M213.79147,646.81347l-1.26717-.475c-.27846-.10493-27.99252-10.72312-40.975-34.79939-12.983-24.07742-6.62584-53.06672-6.56012-53.35613l.29921-1.32021,1.26659.475c.27846.10493,27.99194,10.72312,40.975,34.79939,12.983,24.07742,6.62585,53.06672,6.56012,53.35613Zm-40.16325-36.39516c10.97621,20.35661,32.87672,30.79147,38.42564,33.17362,1.055-5.94729,4.36362-29.99705-6.60278-50.33406-10.96525-20.33472-32.87441-30.78572-38.42564-33.17363C165.96985,566.035,162.6624,590.08244,173.62822,610.41831Z" />
  <path
     id="path6"
     fill="#d0cde1"
     transform="translate(-129.29794 -232.28986)"
     d="M181.47093,603.09347c23.33121,14.03683,32.3168,41.91784,32.3168,41.91784s-28.84178,5.12282-52.173-8.914-32.3168-41.91784-32.3168-41.91784S158.13972,589.05664,181.47093,603.09347Z" />
  <path
     id="path8"
     fill="#3f3d56"
     transform="translate(-129.29794 -232.28986)"
     d="M928.14845,237.65218H667.97885v-5.36232h-117.971v5.36232H288.76576a17.59851,17.59851,0,0,0-17.59851,17.59852V611.50288a17.59856,17.59856,0,0,0,17.59851,17.59858H928.14845A17.59856,17.59856,0,0,0,945.747,611.50288V255.2507A17.5985,17.5985,0,0,0,928.14845,237.65218Z" />
  <rect
     style="fill:#a5e40a;fill-opacity:1"
     id="rect10"
     fill="#fce40a"
     height="353.91304"
     width="627.3913"
     y="36.46377"
     x="165.46352" />
  <circle
     style="fill:#a5e40a;fill-opacity:1"
     id="circle12"
     fill="#fce40a"
     r="6.43478"
     cy="20.37681"
     cx="478.62294" />
  <path
     id="path14"
     fill="#3f3d56"
     transform="translate(-129.29794 -232.28986)"
     d="M886.1358,313.7967h-29.74V284.05675h29.74Zm-28.44691-1.293h27.15387V285.34979H857.68889Z" />
  <path
     id="path16"
     fill="#3f3d56"
     transform="translate(-129.29794 -232.28986)"
     d="M963.36275,616.23188H902.13344v-4.41154a.87468.87468,0,0,0-.87471-.8747H880.26582a.87468.87468,0,0,0-.8747.8747v4.41154H866.27055v-4.41154a.87468.87468,0,0,0-.8747-.8747H844.40294a.87468.87468,0,0,0-.87471.8747v4.41154H830.40767v-4.41154a.87468.87468,0,0,0-.87471-.8747H808.54a.87468.87468,0,0,0-.8747.8747v4.41154H794.54478v-4.41154a.87468.87468,0,0,0-.8747-.8747H772.67717a.87468.87468,0,0,0-.8747.8747v4.41154H758.6819v-4.41154a.87468.87468,0,0,0-.87471-.8747h-20.9929a.87468.87468,0,0,0-.87471.8747v4.41154H722.819v-4.41154a.87467.87467,0,0,0-.8747-.8747H700.9514a.87468.87468,0,0,0-.8747.8747v4.41154H686.95613v-4.41154a.87468.87468,0,0,0-.8747-.8747H521.637a.87468.87468,0,0,0-.8747.8747v4.41154H507.64171v-4.41154a.87468.87468,0,0,0-.8747-.8747H485.7741a.87468.87468,0,0,0-.87471.8747v4.41154H471.77883v-4.41154a.87468.87468,0,0,0-.87471-.8747H449.91121a.87468.87468,0,0,0-.8747.8747v4.41154H435.91594v-4.41154a.87468.87468,0,0,0-.8747-.8747H414.04833a.87468.87468,0,0,0-.87471.8747v4.41154H400.05306v-4.41154a.87468.87468,0,0,0-.87471-.8747H378.18544a.87468.87468,0,0,0-.8747.8747v4.41154H364.19017v-4.41154a.87468.87468,0,0,0-.8747-.8747H342.32256a.87468.87468,0,0,0-.8747.8747v4.41154H328.32729v-4.41154a.87468.87468,0,0,0-.87471-.8747h-20.9929a.87468.87468,0,0,0-.87471.8747v4.41154h-40.2364a20.99291,20.99291,0,0,0-20.99291,20.9929v9.4925a20.99291,20.99291,0,0,0,20.99291,20.99286H963.36275a20.99292,20.99292,0,0,0,20.99291-20.99286v-9.4925A20.99292,20.99292,0,0,0,963.36275,616.23188Z" />
  <rect
     id="rect18"
     fill="#3f3d56"
     height="2.78529"
     width="912.69281"
     y="413.88349"
     x="28.71132" />
  <path
     id="path20"
     fill="#3f3d56"
     transform="translate(-129.29794 -232.28986)"
     d="M883.36954,465.96058h-202v-115h202Zm-200-2h198v-111h-198Z" />
  <path
     id="path22"
     fill="#3f3d56"
     transform="translate(-129.29794 -232.28986)"
     d="M513.36954,488.96058h-180v-112h180Zm-178-2h176v-108h-176Z" />
  <path
     id="path24"
     fill="#d0cde1"
     transform="translate(-129.29794 -232.28986)"
     d="M417.46378,445.96058l-.17236-2.23633c-.51563-4.64356,1.03223-9.71777,5.332-14.87695,3.87012-4.5586,6.02-7.91211,6.02-11.78223,0-4.38574-2.75195-7.30957-8.16992-7.39551a15.28045,15.28045,0,0,0-8.686,2.666l-2.064-5.418c2.83838-2.06445,7.74023-3.44043,12.29785-3.44043,9.89014,0,14.36182,6.10644,14.36182,12.6416,0,5.84863-3.26807,10.0625-7.396,14.96387-3.78369,4.47168-5.15967,8.25586-4.90186,12.6416l.08594,2.23633Zm-1.89209,12.04a5.08415,5.08415,0,0,1,5.15967-5.418c3.01025,0,5.07422,2.23535,5.07422,5.418a5.12129,5.12129,0,1,1-10.23389,0Z" />
  <path
     id="path26"
     fill="#d0cde1"
     transform="translate(-129.29794 -232.28986)"
     d="M776.46378,420.96058l-.17236-2.23633c-.51563-4.64356,1.03223-9.71777,5.332-14.87695,3.87012-4.5586,6.02-7.91211,6.02-11.78223,0-4.38574-2.75195-7.30957-8.16992-7.39551a15.28045,15.28045,0,0,0-8.686,2.666l-2.064-5.418c2.83838-2.06445,7.74023-3.44043,12.29785-3.44043,9.89014,0,14.36182,6.10644,14.36182,12.6416,0,5.84863-3.26807,10.0625-7.396,14.96387-3.78369,4.47168-5.15967,8.25586-4.90186,12.6416l.08594,2.23633Zm-1.89209,12.04a5.08415,5.08415,0,0,1,5.15967-5.418c3.01025,0,5.07422,2.23535,5.07422,5.418a5.12129,5.12129,0,1,1-10.23389,0Z" />
  <circle
     id="circle28"
     fill="#2f2e41"
     r="86.29225"
     cy="260.84872"
     cx="482.69312" />
  <polygon
     id="polygon30"
     fill="#2f2e41"
     points="449.365 379.018 423.568 374.348 431.935 320.484 457.731 325.154 449.365 379.018" />
  <rect
     id="rect32"
     fill="#2f2e41"
     transform="translate(-14.69358 -333.60977) rotate(10.26106)"
     height="46.9692"
     width="26.21537"
     y="564.07272"
     x="608.43233" />
  <ellipse
     id="ellipse34"
     fill="#2f2e41"
     transform="translate(-226.21522 871.66478) rotate(-78.58697)"
     ry="21.84614"
     rx="8.1923"
     cy="611.19594"
     cx="626.08228" />
  <ellipse
     id="ellipse36"
     fill="#2f2e41"
     transform="translate(-238.2839 865.84819) rotate(-82.4537)"
     ry="21.84614"
     rx="8.1923"
     cy="611.25703"
     cx="572.1108" />
  <circle
     id="circle38"
     fill="#fff"
     r="29.49229"
     cy="239.74114"
     cx="488.73433" />
  <circle
     id="circle40"
     fill="#3f3d56"
     r="9.83076"
     cy="229.16973"
     cx="500.85556" />
  <path
     id="path42"
     fill="#fff"
     transform="translate(-129.29794 -232.28986)"
     d="M543.91852,399.26184c-1.29768-31.94667,26.23575-59.00572,61.49764-60.43807s64.89929,23.30439,66.197,55.25107-23.21382,39.20523-58.47571,40.63758S545.21621,431.20852,543.91852,399.26184Z" />
  <ellipse
     id="ellipse44"
     fill="#2f2e41"
     transform="translate(-218.47935 -65.68735) rotate(-12.9101)"
     ry="13.5449"
     rx="43.14613"
     cy="477.41757"
     cx="691.67001" />
  <ellipse
     id="ellipse46"
     fill="#2f2e41"
     transform="translate(-229.05476 -102.82038) rotate(-12.9101)"
     ry="13.5449"
     rx="43.14613"
     cy="505.58661"
     cx="522.28158" />
  <path
     id="path48"
     fill="#fff"
     transform="translate(-129.29794 -232.28986)"
     d="M588.29085,527.14527A19.66153,19.66153,0,0,0,626.985,534.15c1.9343-10.68509-6.32706-14.46612-17.01215-16.40043S590.22516,516.46018,588.29085,527.14527Z" />
  <rect
     id="rect50"
     fill="#d0cde1"
     height="134.9673"
     width="141.88698"
     y="13.12227"
     x="154.5348" />
  <rect
     id="rect52"
     fill="#fff"
     height="83.84231"
     width="109.63994"
     y="29.24579"
     x="170.65832" />
  <rect
     id="rect54"
     fill="#f2f2f2"
     height="3.13877"
     width="59.63671"
     y="122.97937"
     x="170.54973" />
  <rect
     id="rect56"
     fill="#f2f2f2"
     height="3.13877"
     width="59.63671"
     y="132.3957"
     x="170.54973" />
  <circle
     id="circle58"
     fill="#3f3d56"
     r="12.5551"
     cy="71.18959"
     cx="190.16707" />
  <circle
     style="fill:#a5e40a;fill-opacity:1"
     id="circle60"
     fill="#fce40a"
     r="12.5551"
     cy="71.18959"
     cx="225.47829" />
  <circle
     id="circle62"
     fill="#e6e6e6"
     r="12.5551"
     cy="71.18959"
     cx="260.7895" />
  <circle
     id="circle64"
     fill="#3f3d56"
     r="6.27755"
     cy="20.9692"
     cx="225.47829" />
  <rect
     id="rect66"
     fill="#d0cde1"
     height="134.9673"
     width="141.88698"
     y="274.45884"
     x="222.02216" />
  <rect
     id="rect68"
     fill="#fff"
     height="83.84231"
     width="109.63994"
     y="290.58236"
     x="238.14568" />
  <rect
     style="fill:#a5e40a;fill-opacity:1"
     id="rect70"
     fill="#fce40a"
     height="38.437"
     width="38.437"
     y="304.36086"
     x="262.27176" />
  <path
     id="path72"
     fill="#3f3d56"
     transform="translate(-129.29794 -232.28986)"
     d="M406.28392,546.26247V592.936h46.67356V546.26247Zm44.64908,44.649H408.30839V548.287H450.933Z" />
  <rect
     id="rect74"
     fill="#f2f2f2"
     height="3.13877"
     width="59.63671"
     y="382.74656"
     x="238.0371" />
  <circle
     id="circle76"
     fill="#3f3d56"
     r="6.27755"
     cy="282.30578"
     cx="292.96565" />
  <rect
     id="rect78"
     fill="#d0cde1"
     height="134.9673"
     width="141.88698"
     y="234.05278"
     x="591.4365" />
  <rect
     id="rect80"
     fill="#fff"
     height="83.84231"
     width="109.63994"
     y="250.1763"
     x="607.56002" />
  <rect
     id="rect82"
     fill="#3f3d56"
     height="6.98967"
     width="23.58659"
     y="315.8124"
     x="650.5867" />
  <rect
     id="rect84"
     fill="#3f3d56"
     height="2.99557"
     width="80.61684"
     y="261.39284"
     x="622.07157" />
  <rect
     id="rect86"
     fill="#3f3d56"
     height="2.99557"
     width="80.61684"
     y="270.87882"
     x="622.07157" />
  <rect
     id="rect88"
     fill="#3f3d56"
     height="2.99557"
     width="80.61684"
     y="280.36479"
     x="622.07157" />
  <rect
     id="rect90"
     fill="#3f3d56"
     height="2.99557"
     width="80.61684"
     y="289.85077"
     x="622.07157" />
  <rect
     id="rect92"
     fill="#3f3d56"
     height="2.99557"
     width="80.61684"
     y="299.33675"
     x="622.07157" />
  <rect
     id="rect94"
     fill="#f2f2f2"
     height="3.13877"
     width="59.63671"
     y="342.3405"
     x="607.45144" />
  <rect
     id="rect96"
     fill="#f2f2f2"
     height="3.13877"
     width="83.17752"
     y="350.18743"
     x="607.45144" />
  <circle
     id="circle98"
     fill="#3f3d56"
     r="6.27755"
     cy="241.89971"
     cx="662.37999" />
</svg>
