<?xml version="1.0" encoding="UTF-8" standalone="no"?>
<svg
   xmlns:dc="http://purl.org/dc/elements/1.1/"
   xmlns:cc="http://creativecommons.org/ns#"
   xmlns:rdf="http://www.w3.org/1999/02/22-rdf-syntax-ns#"
   xmlns:svg="http://www.w3.org/2000/svg"
   xmlns="http://www.w3.org/2000/svg"
   xmlns:xlink="http://www.w3.org/1999/xlink"
   xmlns:sodipodi="http://sodipodi.sourceforge.net/DTD/sodipodi-0.dtd"
   xmlns:inkscape="http://www.inkscape.org/namespaces/inkscape"
   sodipodi:docname="a1bn.svg"
   inkscape:version="1.0 (4035a4fb49, 2020-05-01)"
   width="960px"
   height="2160px"
   viewBox="0 0 960 2160"
   version="1.1"
   id="SVGRoot">
  <defs
     id="defs852">
    <linearGradient
       gradientUnits="userSpaceOnUse"
       y2="549.14276"
       x2="174.49117"
       y1="840.4469"
       x1="177.78685"
       id="linearGradient866"
       xlink:href="#linearGradient864"
       inkscape:collect="always"
       gradientTransform="matrix(-1.2260282,0,0,1.3032322,1198.4014,726.0689)" />
    <linearGradient
       id="linearGradient864"
       inkscape:collect="always">
      <stop
         id="stop860"
         offset="0"
         style="stop-color:#ade379;stop-opacity:1" />
      <stop
         id="stop862"
         offset="1"
         style="stop-color:#ade379;stop-opacity:1" />
    </linearGradient>
  </defs>
  <sodipodi:namedview
     inkscape:window-maximized="1"
     inkscape:window-y="-9"
     inkscape:window-x="-9"
     inkscape:window-height="1001"
     inkscape:window-width="1920"
     showgrid="false"
     inkscape:document-rotation="0"
     inkscape:current-layer="layer1"
     inkscape:document-units="px"
     inkscape:cy="1402.335"
     inkscape:cx="-182.5965"
     inkscape:zoom="0.35"
     inkscape:pageshadow="2"
     inkscape:pageopacity="0.0"
     borderopacity="1.0"
     bordercolor="#666666"
     pagecolor="#ffffff"
     id="base" />
  <metadata
     id="metadata855">
    <rdf:RDF>
      <cc:Work
         rdf:about="">
        <dc:format>image/svg+xml</dc:format>
        <dc:type
           rdf:resource="http://purl.org/dc/dcmitype/StillImage" />
        <dc:title />
      </cc:Work>
    </rdf:RDF>
  </metadata>
  <g
     id="layer1"
     inkscape:label="Layer 1">
    <path
       d="m 1137.6962,736.813 a 387.64284,362.0274 0 0 1 338.0558,185.6621 491.67476,533.16763 0 0 1 398.8564,523.581 491.67476,533.16763 0 0 1 -491.6731,533.1672 491.67476,533.16763 0 0 1 -16.6639,-0.3055 339.3423,331.74875 0 0 1 -282.408,147.815 339.3423,331.74875 0 0 1 -201.91855,-65.1234 458.23593,639.80114 0 0 1 -140.1983,30.6845 458.23593,639.80114 0 0 1 -241.47009,-96.0395 215.49474,218.5329 0 0 1 -24.5587,1.4254 215.49474,218.5329 0 0 1 -195.4943,-126.5891 250.17205,412.05301 0 0 1 -1.7287,0.012 250.17205,412.05301 0 0 1 -250.172096,-412.0532 250.17205,412.05301 0 0 1 184.711296,-397.6971 225.40254,252.76095 0 0 1 225.0814,-239.2398 225.40254,252.76095 0 0 1 124.07559,41.7416 458.23593,639.80114 0 0 1 110.7496,-43.9077 151.09401,157.97559 0 0 1 120.4118,-62.545 151.09401,157.97559 0 0 1 111.66196,51.5516 387.64284,362.0274 0 0 1 232.20289,-72.1384 387.64284,362.0274 0 0 1 0.479,0 z"
       style="fill:url(#linearGradient866);fill-opacity:1;stroke-width:1.28685"
       id="path1414" />
    <g
       id="g1057"
       transform="translate(-528.25505,-1644.3089)">
      <path
         style="stroke-width:2.3975"
         d="m 852.38577,2190.6207 v 0 a 27.161271,32.381868 83.893847 0 1 45.57234,4.0008 l 49.97732,55.1747 -32.68787,26.4464 -64.01286,-43.0891 a 27.161249,32.381842 83.893849 0 1 1.15107,-42.5328 z"
         fill="#a0616a"
         id="path24-4" />
      <path
         style="stroke-width:2.3975;fill:#ffd6bb;fill-opacity:1"
         d="m 904.46201,2270.3737 c 23.26553,79.2396 72.92757,138.1856 183.36689,150.4072 80.5021,-66.3627 110.0218,-147.9558 100.0694,-241.3407 a 43.221077,51.528487 83.893849 0 0 -58.1142,-37.2212 v 0 a 43.198921,51.502073 83.89385 0 0 -43.209,34.4897 l -36.0049,132.1334 -100.32072,-68.102 z"
         fill="#fce40a"
         id="path26-5" />
      <path
         style="stroke-width:2.3975"
         d="m 654.34647,2863.5309 c 83.63728,-44.7961 121.46251,-94.6576 102.35239,-150.8149 l -27.30388,-14.3547 -120.43895,135.2861 a 21.0984,25.153669 83.893851 0 0 23.27301,33.1112 z"
         fill="#e6e6e6"
         id="path28-7" />
      <path
         style="stroke-width:2.3975"
         d="m 721.16196,2832.3316 c 43.99635,-22.4329 87.21852,-42.5847 129.42153,-59.7341 a 25.868434,30.840538 83.893848 0 0 15.766,-34.4286 l -13.73119,-26.3908 5.31835,-62.2547 -45.91834,-10.4574 c -23.87405,65.524 -56.88416,126.7387 -109.34155,178.7796 a 11.268233,13.43407 83.893852 0 0 18.4852,14.486 z"
         fill="#e6e6e6"
         id="path30-2" />
      <path
         style="stroke-width:2.3975"
         d="m 849.00533,2536.8308 c 111.14694,57.0612 203.73817,87.107 297.10597,82.3089 106.7424,-18.5792 152.1346,-83.0228 160.781,-174.9369 l -202.704,-10.3625 -10.3346,28.5657 -278.9616,-30.0407 a 24.138685,28.778318 83.893852 0 0 -35.30152,17.6846 l -59.43567,252.7163 39.12259,18.6738 z"
         fill="#2f2e41"
         id="path32-6" />
      <polygon
         transform="matrix(-2.310016,1.101249,1.2221627,1.9056676,1339.317,1016.6139)"
         points="473.788,517.007 481.788,502.007 526.788,549.007 507.788,569.007 "
         fill="#2f2e41"
         id="polygon34-8" />
      <ellipse
         style="stroke-width:2.40697"
         transform="matrix(-0.90267214,0.43032896,0.53984793,0.84176256,0,0)"
         ry="76.972656"
         rx="87.008934"
         cx="214.74297"
         cy="2341.2361"
         fill="#a0616a"
         id="circle36-7" />
      <path
         style="stroke-width:2.3975"
         d="m 1126.2742,2193.143 71.8925,-66.6212 a 103.62779,123.54581 83.893856 0 1 -52.835,-49.4613 l -71.6105,34.1388 c 22.7199,27.1347 41.0172,54.4223 52.553,81.9437 z"
         fill="#a0616a"
         id="path38-0" />
      <path
         style="stroke-width:2.3975;fill:#ffd6bb;fill-opacity:1"
         d="m 1050.3797,2455.7599 c 16.0188,-1.8165 26.2491,12.1771 41.8422,11.1565 75.3783,-4.9338 151.373,-16.008 216.9737,-2.661 65.4093,-105.8569 46.1169,-328.5881 -126.5141,-347.7695 -28.9367,40.2135 -57.0895,72.5404 -78.5406,37.4425 z"
         fill="#fce40a"
         id="path40-6" />
      <path
         style="stroke-width:2.3975"
         d="m 1054.6235,2354.2045 34.7913,-32.76 119.1472,14.116 -34.1928,-130.2685 c -2.3715,-9.0351 4.4068,-7.1137 13.9744,-4.6134 a 43.178259,51.477439 83.89385 0 1 92.8045,-10.5098 c 56.7147,79.2788 71.1289,162.3526 30.9082,250.3281 -107.773,29.051 -183.4598,-5.3196 -245.2111,-67.2358 l 2.962,-4.6983 q -7.7306,-6.9044 -15.1837,-14.3583 z"
         opacity="0.2"
         id="path42-8" />
      <path
         style="stroke-width:2.3975"
         d="m 1004.837,1982.9798 c -22.77562,17.2335 -47.8254,38.2092 -45.35479,45.428 -23.09707,18.2448 -34.70167,41.1045 -25.83437,63.2933 a 13.960358,16.643642 83.893852 0 0 23.74548,7.0266 c 14.39429,-7.0632 35.41674,-18.5805 46.60878,-30.3797 55.9619,2.2879 99.971,56.6468 106.9328,104.6099 l 27.2898,-15.8417 -16.2839,-85.8028 51.7284,65.2275 60.8708,-38.3403 -64.7287,-83.7651 a 150.6974,179.66255 83.893851 0 0 -62.0914,-46.1259 56.913376,67.852547 83.893851 0 0 -7.8953,-2.7735 79.070219,94.268098 83.893851 0 0 -94.9876,17.4437 z"
         fill="#2f2e41"
         id="path44-7" />
      <polygon
         transform="matrix(-2.310016,1.101249,1.2221627,1.9056676,1339.317,1016.6139)"
         points="411.402,475.011 458.078,419.925 426.54,381.659 380.285,438.428 "
         fill="#3f3d56"
         id="polygon46-3" />
      <path
         style="stroke-width:2.3975"
         d="m 814.36469,2314.9151 48.47806,-98.4475 c -11.02392,-7.3006 -32.28112,7.0186 -32.28112,7.0186 l -31.02287,87.8609 a 34.803963,41.493542 83.893853 0 0 -1.74382,9.3746 v 0 z"
         fill="#f2f2f2"
         id="path48-6" />
      <path
         style="stroke-width:2.3975"
         d="m 807.90958,2312.7607 57.05104,-108.8125 194.16138,83.2234 -65.27665,104.8863 c -7.65806,7.8362 -20.9692,6.8576 -20.9692,6.8576 L 793.6242,2321.1404 Z"
         fill="#3f3d56"
         id="path50-1" />
      <rect
         style="stroke-width:2.41225"
         x="-1891.2202"
         y="1788.9683"
         width="1.7100673"
         height="76.854942"
         transform="matrix(-0.93271171,-0.36062289,-0.50141167,0.86520884,0,0)"
         fill="#fce40a"
         id="rect52-0" />
      <rect
         style="stroke-width:2.41333"
         x="-2129.4082"
         y="1818.7324"
         width="159.75548"
         height="1.5908548"
         transform="matrix(-0.91930329,-0.39354982,-0.53656105,0.84386151,0,0)"
         fill="#fce40a"
         id="rect54-8" />
      <rect
         style="stroke-width:2.41191"
         x="-2055.05"
         y="1812.8765"
         width="1.7133405"
         height="82.147652"
         transform="matrix(-0.93635553,-0.35105315,-0.49096465,0.87117949,0,0)"
         fill="#fce40a"
         id="rect56-7" />
      <rect
         style="stroke-width:2.41269"
         x="-2083.7869"
         y="1758.468"
         width="160.34944"
         height="1.5838841"
         transform="matrix(-0.92765793,-0.37343108,-0.51523105,0.85705132,0,0)"
         fill="#fce40a"
         id="rect58-5" />
      <rect
         style="stroke-width:2.40823"
         x="-1644.1761"
         y="1942.7584"
         width="1.0713003"
         height="102.75223"
         transform="matrix(-0.96596742,-0.25866377,-0.38482479,0.92298964,0,0)"
         fill="#b3b3b3"
         id="rect60-5" />
      <rect
         style="stroke-width:2.40892"
         x="-1687.1342"
         y="1915.3235"
         width="1.0698956"
         height="105.84693"
         transform="matrix(-0.96139759,-0.27516298,-0.40447013,0.91455121,0,0)"
         fill="#b3b3b3"
         id="rect62-3" />
      <rect
         style="stroke-width:2.40992"
         x="-1745.4934"
         y="1876.985"
         width="1.0661711"
         height="107.71063"
         transform="matrix(-0.95412707,-0.29940195,-0.43279322,0.90149322,0,0)"
         fill="#b3b3b3"
         id="rect64-4" />
      <path
         style="stroke-width:2.3975"
         d="m 971.00816,2309.8636 v 0 a 27.161249,32.381842 83.893849 0 1 43.94114,-12.9129 l 74.0558,30.9099 -16.5864,35.2786 -80.8059,-15.1142 a 27.161292,32.381895 83.893844 0 1 -20.60464,-38.1614 z"
         fill="#a0616a"
         id="path66-4" />
      <path
         style="stroke-width:2.3975;fill:#ffd6bb;fill-opacity:1"
         d="m 1059.5122,2361.8271 c 61.7513,61.9162 137.4381,96.2868 245.2111,67.2358 40.2209,-87.9755 25.8065,-171.0492 -30.9081,-250.328 a 43.221077,51.528487 83.893849 0 0 -72.3934,-12.0375 v 0 a 43.198944,51.502099 83.893849 0 0 -22.1639,46.2173 l 34.1928,130.2684 -126.9304,-24.1952 z"
         fill="#fce40a"
         id="path68-1" />
    </g>
  </g>
</svg>
