<?xml version="1.0" encoding="UTF-8" standalone="no"?>
<svg
   xmlns:dc="http://purl.org/dc/elements/1.1/"
   xmlns:cc="http://creativecommons.org/ns#"
   xmlns:rdf="http://www.w3.org/1999/02/22-rdf-syntax-ns#"
   xmlns:svg="http://www.w3.org/2000/svg"
   xmlns="http://www.w3.org/2000/svg"
   xmlns:sodipodi="http://sodipodi.sourceforge.net/DTD/sodipodi-0.dtd"
   xmlns:inkscape="http://www.inkscape.org/namespaces/inkscape"
   sodipodi:docname="a1bn.svg"
   inkscape:version="1.0 (4035a4fb49, 2020-05-01)"
   width="960px"
   height="2160px"
   viewBox="0 0 960 2160"
   version="1.1"
   id="SVGRoot">
  <defs
     id="defs852" />
  <sodipodi:namedview
     inkscape:window-maximized="1"
     inkscape:window-y="-9"
     inkscape:window-x="-9"
     inkscape:window-height="1001"
     inkscape:window-width="1920"
     showgrid="false"
     inkscape:document-rotation="0"
     inkscape:current-layer="layer1"
     inkscape:document-units="px"
     inkscape:cy="1086.6667"
     inkscape:cx="400"
     inkscape:zoom="0.35"
     inkscape:pageshadow="2"
     inkscape:pageopacity="0.0"
     borderopacity="1.0"
     bordercolor="#666666"
     pagecolor="#ffffff"
     id="base" />
  <metadata
     id="metadata855">
    <rdf:RDF>
      <cc:Work
         rdf:about="">
        <dc:format>image/svg+xml</dc:format>
        <dc:type
           rdf:resource="http://purl.org/dc/dcmitype/StillImage" />
        <dc:title></dc:title>
      </cc:Work>
    </rdf:RDF>
  </metadata>
  <g
     id="layer1"
     inkscape:groupmode="layer"
     inkscape:label="Layer 1">
    <ellipse
       transform="scale(-1,1)"
       ry="651.82007"
       rx="434.76883"
       cy="1494.3663"
       cx="-807.69257"
       id="path1414"
       style="fill:#d8e6e6;fill-opacity:1;stroke-width:1.26519" />
    <ellipse
       transform="scale(-1,1)"
       ry="433.93573"
       rx="316.15216"
       cy="1515.1874"
       cx="-333.81909"
       id="path1416"
       style="fill:#d8e6e6;fill-opacity:1;stroke-width:1.78428" />
    <ellipse
       transform="scale(-1,1)"
       ry="257.50919"
       rx="213.85928"
       cy="1109.6526"
       cx="-519.61023"
       id="path1418"
       style="fill:#d8e6e6;fill-opacity:1;stroke-width:1.24276" />
    <ellipse
       transform="scale(-1,1)"
       ry="222.63812"
       rx="204.45886"
       cy="1827.1576"
       cx="-555.28687"
       id="path1420"
       style="fill:#d8e6e6;fill-opacity:1;stroke-width:1.24276" />
    <ellipse
       transform="scale(-1,1)"
       ry="368.82825"
       rx="367.79099"
       cy="1134.0703"
       cx="-1182.9117"
       id="path1422"
       style="fill:#d8e6e6;fill-opacity:1;stroke-width:1.85117" />
    <ellipse
       transform="scale(-1,1)"
       ry="128.18564"
       rx="114.95458"
       cy="1001.0504"
       cx="-704.97205"
       id="path1426"
       style="fill:#d8e6e6;fill-opacity:1;stroke-width:0.993174" />
    <ellipse
       style="fill:#d8e6e6;fill-opacity:1;stroke-width:2.58002"
       id="path1424-7"
       cx="-1397.9971"
       cy="1566.6079"
       rx="430.05026"
       ry="433.94528"
       transform="scale(-1,1)" />
    <path
       style="stroke-width:2.3975"
       d="m 339.69356,535.48297 v 0 a 27.161271,32.381868 83.893847 0 1 45.57234,4.00077 l 49.97732,55.17469 -32.68787,26.44645 -64.01286,-43.08916 a 27.161249,32.381842 83.893849 0 1 1.15107,-42.53275 z"
       fill="#a0616a"
       id="path24" />
    <path
       style="stroke-width:2.3975"
       d="m 391.7698,615.23595 c 23.26553,79.23966 72.92757,138.18562 183.3669,150.40726 80.50208,-66.36279 110.02181,-147.95586 100.06939,-241.34077 a 43.221077,51.528487 83.893849 0 0 -58.11423,-37.22113 v 0 a 43.198921,51.502073 83.89385 0 0 -43.20894,34.48964 L 537.87801,653.70436 437.55727,585.60234 Z"
       fill="#fce40a"
       id="path26" />
    <path
       style="stroke-width:2.3975"
       d="m 141.65426,1208.3932 c 83.63728,-44.7961 121.46251,-94.6576 102.35239,-150.8149 l -27.30388,-14.3547 -120.438949,135.2861 a 21.0984,25.153669 83.893851 0 0 23.273009,33.1112 z"
       fill="#e6e6e6"
       id="path28" />
    <path
       style="stroke-width:2.3975"
       d="m 208.46975,1177.1939 c 43.99635,-22.4329 87.21852,-42.5847 129.42153,-59.7341 a 25.868434,30.840538 83.893848 0 0 15.766,-34.4286 l -13.73119,-26.3908 5.31835,-62.25472 -45.91834,-10.45743 C 275.45205,1049.4523 242.44194,1110.667 189.98455,1162.7079 a 11.268233,13.43407 83.893852 0 0 18.4852,14.486 z"
       fill="#e6e6e6"
       id="path30" />
    <path
       style="stroke-width:2.3975"
       d="m 336.31312,881.69308 c 111.14694,57.06118 203.73814,87.10696 297.10593,82.30888 106.74244,-18.57915 152.13461,-83.02278 160.78107,-174.93687 l -202.70406,-10.36252 -10.3346,28.5657 -278.96157,-30.04075 a 24.138685,28.778318 83.893852 0 0 -35.30152,17.68468 l -59.43567,252.7163 39.12259,18.6738 z"
       fill="#2f2e41"
       id="path32" />
    <polygon
       transform="matrix(-2.310016,1.101249,1.2221627,1.9056676,826.62478,-638.52383)"
       points="507.788,569.007 473.788,517.007 481.788,502.007 526.788,549.007 "
       fill="#2f2e41"
       id="polygon34" />
    <ellipse
       style="stroke-width:2.40697"
       transform="matrix(-0.90267214,0.43032896,0.53984793,0.84176256,0,0)"
       ry="76.972656"
       rx="87.008934"
       cx="-250.87068"
       cy="612.99249"
       fill="#a0616a"
       id="circle36" />
    <path
       style="stroke-width:2.3975"
       d="m 613.58196,538.00524 71.89248,-66.62114 a 103.62779,123.54581 83.893856 0 1 -52.83497,-49.46129 l -71.6105,34.13872 c 22.71987,27.13477 41.01725,54.42232 52.55299,81.94371 z"
       fill="#a0616a"
       id="path38" />
    <path
       style="stroke-width:2.3975"
       d="m 537.68744,800.62217 c 16.01882,-1.81646 26.24912,12.17712 41.84223,11.15648 75.37828,-4.93381 151.373,-16.00797 216.97374,-2.66102 65.40925,-105.85683 46.11688,-328.58811 -126.51416,-347.76945 -28.93664,40.2135 -57.08944,72.54038 -78.54054,37.44246 z"
       fill="#fce40a"
       id="path40" />
    <path
       style="stroke-width:2.3975"
       d="m 541.93131,699.06674 34.79125,-32.75994 119.14721,14.11592 -34.19274,-130.26844 c -2.37153,-9.03512 4.40672,-7.11369 13.97433,-4.61344 a 43.178259,51.477439 83.89385 0 1 92.80456,-10.50978 c 56.71465,79.27876 71.12886,162.35259 30.90815,250.32807 C 691.59105,814.4102 615.90424,780.03959 554.15294,718.1234 l 2.96206,-4.69835 q -7.73066,-6.90438 -15.18369,-14.35831 z"
       opacity="0.2"
       id="path42" />
    <path
       style="stroke-width:2.3975"
       d="m 492.1448,327.84203 c -22.77563,17.23353 -47.82541,38.20926 -45.3548,45.42804 -23.09707,18.24483 -34.70167,41.10448 -25.83437,63.29326 a 13.960358,16.643642 83.893852 0 0 23.74548,7.0266 c 14.39429,-7.06321 35.41674,-18.58045 46.60882,-30.3797 55.96188,2.28794 99.97094,56.6468 106.93274,104.60989 l 27.28986,-15.8417 -16.28392,-85.80272 51.72841,65.22748 60.87077,-38.34036 -64.72868,-83.76509 a 150.6974,179.66255 83.893851 0 0 -62.09143,-46.12591 56.913376,67.852547 83.893851 0 0 -7.89531,-2.77341 79.070219,94.268098 83.893851 0 0 -94.98757,17.44362 z"
       fill="#2f2e41"
       id="path44" />
    <polygon
       transform="matrix(-2.310016,1.101249,1.2221627,1.9056676,826.62478,-638.52383)"
       points="380.285,438.428 411.402,475.011 458.078,419.925 426.54,381.659 "
       fill="#3f3d56"
       id="polygon46" />
    <path
       style="stroke-width:2.3975"
       d="m 301.67248,659.77733 48.47806,-98.44751 c -11.02392,-7.30059 -32.28112,7.01864 -32.28112,7.01864 l -31.02287,87.86094 a 34.803963,41.493542 83.893853 0 0 -1.74382,9.3746 v 0 z"
       fill="#f2f2f2"
       id="path48" />
    <path
       style="stroke-width:2.3975"
       d="m 295.21737,657.62297 57.05104,-108.81246 194.16139,83.2234 -65.27666,104.88627 c -7.65806,7.83615 -20.9692,6.85758 -20.9692,6.85758 l -179.25195,-77.7751 z"
       fill="#3f3d56"
       id="path50" />
    <rect
       style="stroke-width:2.41225"
       x="-602.01483"
       y="413.32269"
       width="1.7100673"
       height="76.854942"
       transform="matrix(-0.93271171,-0.36062289,-0.50141167,0.86520884,0,0)"
       fill="#fce40a"
       id="rect52" />
    <rect
       style="stroke-width:2.41333"
       x="-791.19171"
       y="481.448"
       width="159.75548"
       height="1.5908548"
       transform="matrix(-0.91930329,-0.39354982,-0.53656105,0.84386151,0,0)"
       fill="#fce40a"
       id="rect54" />
    <rect
       style="stroke-width:2.41191"
       x="-780.60828"
       y="426.54794"
       width="1.7133405"
       height="82.147652"
       transform="matrix(-0.93635553,-0.35105315,-0.49096465,0.87117949,0,0)"
       fill="#fce40a"
       id="rect56" />
    <rect
       style="stroke-width:2.41269"
       x="-775.18683"
       y="397.44589"
       width="160.34944"
       height="1.5838841"
       transform="matrix(-0.92765793,-0.37343108,-0.51523105,0.85705132,0,0)"
       fill="#fce40a"
       id="rect58" />
    <rect
       style="stroke-width:2.40823"
       x="-524.08002"
       y="463.42502"
       width="1.0713003"
       height="102.75223"
       transform="matrix(-0.96596742,-0.25866377,-0.38482479,0.92298964,0,0)"
       fill="#b3b3b3"
       id="rect60" />
    <rect
       style="stroke-width:2.40892"
       x="-537.92847"
       y="451.30612"
       width="1.0698956"
       height="105.84693"
       transform="matrix(-0.96139759,-0.27516298,-0.40447013,0.91455121,0,0)"
       fill="#b3b3b3"
       id="rect62" />
    <rect
       style="stroke-width:2.40992"
       x="-554.72925"
       y="436.46317"
       width="1.0661711"
       height="107.71063"
       transform="matrix(-0.95412707,-0.29940195,-0.43279322,0.90149322,0,0)"
       fill="#b3b3b3"
       id="rect64" />
    <path
       style="stroke-width:2.3975"
       d="m 458.31595,654.72589 v 0 a 27.161249,32.381842 83.893849 0 1 43.94117,-12.91292 l 74.05577,30.90991 -16.58639,35.27857 -80.80591,-15.11417 a 27.161292,32.381895 83.893844 0 1 -20.60464,-38.16139 z"
       fill="#a0616a"
       id="path66" />
    <path
       style="stroke-width:2.3975"
       d="m 546.81997,706.68939 c 61.75134,61.91617 137.43811,96.2868 245.21107,67.23574 40.22094,-87.9755 25.80657,-171.04919 -30.90806,-250.32798 a 43.221077,51.528487 83.893849 0 0 -72.3934,-12.03753 v 0 a 43.198944,51.502099 83.893849 0 0 -22.16386,46.2173 l 34.19274,130.26845 -126.93035,-24.19519 z"
       fill="#fce40a"
       id="path68" />
  </g>
</svg>
