<?xml version="1.0" encoding="UTF-8" standalone="no"?>
<svg
   xmlns:dc="http://purl.org/dc/elements/1.1/"
   xmlns:cc="http://creativecommons.org/ns#"
   xmlns:rdf="http://www.w3.org/1999/02/22-rdf-syntax-ns#"
   xmlns:svg="http://www.w3.org/2000/svg"
   xmlns="http://www.w3.org/2000/svg"
   xmlns:xlink="http://www.w3.org/1999/xlink"
   xmlns:sodipodi="http://sodipodi.sourceforge.net/DTD/sodipodi-0.dtd"
   xmlns:inkscape="http://www.inkscape.org/namespaces/inkscape"
   id="SVGRoot"
   version="1.1"
   viewBox="0 0 960 1080"
   height="1080px"
   width="960px"
   inkscape:version="1.0 (4035a4fb49, 2020-05-01)"
   sodipodi:docname="a3b.svg">
  <defs
     id="defs840">
    <linearGradient
       gradientUnits="userSpaceOnUse"
       y2="280.82242"
       x2="171.25108"
       y1="840.4469"
       x1="177.78685"
       id="linearGradient866"
       xlink:href="#linearGradient864"
       inkscape:collect="always"
       gradientTransform="matrix(-0.92734571,0,0,1,901.95311,-2.0814329)" />
    <linearGradient
       id="linearGradient864"
       inkscape:collect="always">
      <stop
         id="stop860"
         offset="0"
         style="stop-color:#ade379;stop-opacity:1" />
      <stop
         id="stop862"
         offset="1"
         style="stop-color:#ade379;stop-opacity:1" />
    </linearGradient>
  </defs>
  <sodipodi:namedview
     id="base"
     pagecolor="#ffffff"
     bordercolor="#666666"
     borderopacity="1.0"
     inkscape:pageopacity="0.0"
     inkscape:pageshadow="2"
     inkscape:zoom="0.49497475"
     inkscape:cx="504.60472"
     inkscape:cy="487.19511"
     inkscape:document-units="px"
     inkscape:current-layer="layer1"
     inkscape:document-rotation="0"
     showgrid="false"
     inkscape:window-width="1920"
     inkscape:window-height="1001"
     inkscape:window-x="-9"
     inkscape:window-y="-9"
     inkscape:window-maximized="1" />
  <metadata
     id="metadata843">
    <rdf:RDF>
      <cc:Work
         rdf:about="">
        <dc:format>image/svg+xml</dc:format>
        <dc:type
           rdf:resource="http://purl.org/dc/dcmitype/StillImage" />
        <dc:title />
      </cc:Work>
    </rdf:RDF>
  </metadata>
  <g
     inkscape:label="Layer 1"
     inkscape:groupmode="layer"
     id="layer1">
    <path
       d="M 856.03684,6.1627071 A 293.20608,277.79196 0 0 1 1111.7361,148.6256 a 371.89395,409.11179 0 0 1 301.688,401.75586 371.89395,409.11179 0 0 1 -371.8928,409.11133 371.89395,409.11179 0 0 1 -12.6043,-0.23438 256.67241,254.55846 0 0 1 -213.6083,113.42189 256.67241,254.55846 0 0 1 -152.7276,-49.9707 346.60143,490.93414 0 0 1 -106.0434,23.5449 346.60143,490.93414 0 0 1 -182.64361,-73.69335 162.99635,167.68532 0 0 1 -18.57593,1.09375 162.99635,167.68532 0 0 1 -147.86817,-97.13477 189.22564,316.17776 0 0 1 -1.30766,0.008 A 189.22564,316.17776 0 0 1 16.92671,560.35021 189.22564,316.17776 0 0 1 156.63895,255.1881 170.49043,193.9493 0 0 1 326.88655,71.613877 a 170.49043,193.9493 0 0 1 93.84854,32.029303 346.60143,490.93414 0 0 1 83.7689,-33.691413 114.28479,121.21831 0 0 1 91.0774,-47.99218 114.28479,121.21831 0 0 1 84.45902,39.55664 293.20608,277.79196 0 0 1 175.63422,-55.3535199 293.20608,277.79196 0 0 1 0.36221,0 z"
       style="fill:url(#linearGradient866);fill-opacity:1;stroke-width:0.980362"
       id="path1414" />
  </g>
</svg>
