<?xml version="1.0" encoding="UTF-8" standalone="no"?>
<svg
   xmlns:dc="http://purl.org/dc/elements/1.1/"
   xmlns:cc="http://creativecommons.org/ns#"
   xmlns:rdf="http://www.w3.org/1999/02/22-rdf-syntax-ns#"
   xmlns:svg="http://www.w3.org/2000/svg"
   xmlns="http://www.w3.org/2000/svg"
   xmlns:xlink="http://www.w3.org/1999/xlink"
   xmlns:sodipodi="http://sodipodi.sourceforge.net/DTD/sodipodi-0.dtd"
   xmlns:inkscape="http://www.inkscape.org/namespaces/inkscape"
   id="SVGRoot"
   version="1.1"
   viewBox="0 0 960 1080"
   height="1080px"
   width="960px"
   inkscape:version="1.0 (4035a4fb49, 2020-05-01)"
   sodipodi:docname="a4b.svg">
  <defs
     id="defs840">
    <linearGradient
       inkscape:collect="always"
       id="linearGradient864">
      <stop
         style="stop-color:#ade379;stop-opacity:1"
         offset="0"
         id="stop860" />
      <stop
         style="stop-color:#ade379;stop-opacity:1"
         offset="1"
         id="stop862" />
    </linearGradient>
    <linearGradient
       inkscape:collect="always"
       xlink:href="#linearGradient864"
       id="linearGradient866"
       x1="177.78685"
       y1="840.4469"
       x2="181.82747"
       y2="155.56348"
       gradientUnits="userSpaceOnUse" />
  </defs>
  <sodipodi:namedview
     id="base"
     pagecolor="#ffffff"
     bordercolor="#666666"
     borderopacity="1.0"
     inkscape:pageopacity="0.0"
     inkscape:pageshadow="2"
     inkscape:zoom="0.49497475"
     inkscape:cx="504.60472"
     inkscape:cy="487.19511"
     inkscape:document-units="px"
     inkscape:current-layer="layer1"
     inkscape:document-rotation="0"
     showgrid="false"
     inkscape:window-width="1920"
     inkscape:window-height="1001"
     inkscape:window-x="-9"
     inkscape:window-y="-9"
     inkscape:window-maximized="1" />
  <metadata
     id="metadata843">
    <rdf:RDF>
      <cc:Work
         rdf:about="">
        <dc:format>image/svg+xml</dc:format>
        <dc:type
           rdf:resource="http://purl.org/dc/dcmitype/StillImage" />
        <dc:title />
      </cc:Work>
    </rdf:RDF>
  </metadata>
  <g
     inkscape:label="Layer 1"
     inkscape:groupmode="layer"
     id="layer1">
    <path
       id="path1414"
       style="fill:url(#linearGradient866);stroke-width:1.01804;fill-opacity:1"
       d="M 49.513672,8.2441406 A 316.17776,277.79196 0 0 0 -226.21875,150.70703 a 401.03055,409.11179 0 0 0 -325.32422,401.75586 401.03055,409.11179 0 0 0 401.0293,409.11133 401.03055,409.11179 0 0 0 13.59179,-0.23438 276.7818,254.55846 0 0 0 230.343755,113.42186 276.7818,254.55846 0 0 0 164.693355,-49.9707 373.75644,490.93414 0 0 0 114.35157,23.5449 373.75644,490.93414 0 0 0 196.95312,-73.69332 175.76654,167.68532 0 0 0 20.03125,1.09375 175.76654,167.68532 0 0 0 159.45313,-97.13477 204.05081,316.17776 0 0 0 1.41015,0.008 A 204.05081,316.17776 0 0 0 954.36523,562.43164 204.05081,316.17776 0 0 0 803.70703,257.26953 183.84776,193.9493 0 0 0 620.12109,73.695312 183.84776,193.9493 0 0 0 518.91992,105.72461 373.75644,490.93414 0 0 0 428.58789,72.033203 123.23861,121.21831 0 0 0 330.375,24.041016 123.23861,121.21831 0 0 0 239.29883,63.597656 316.17776,277.79196 0 0 0 49.904297,8.2441406 a 316.17776,277.79196 0 0 0 -0.390625,0 z" />
  </g>
</svg>
