<?xml version="1.0" encoding="UTF-8" standalone="no"?>
<svg
   xmlns:dc="http://purl.org/dc/elements/1.1/"
   xmlns:cc="http://creativecommons.org/ns#"
   xmlns:rdf="http://www.w3.org/1999/02/22-rdf-syntax-ns#"
   xmlns:svg="http://www.w3.org/2000/svg"
   xmlns="http://www.w3.org/2000/svg"
   xmlns:sodipodi="http://sodipodi.sourceforge.net/DTD/sodipodi-0.dtd"
   xmlns:inkscape="http://www.inkscape.org/namespaces/inkscape"
   inkscape:version="1.0 (4035a4fb49, 2020-05-01)"
   sodipodi:docname="blob.svg"
   id="svg4"
   version="1.1"
   viewBox="0 0 200 200">
  <metadata
     id="metadata10">
    <rdf:RDF>
      <cc:Work
         rdf:about="">
        <dc:format>image/svg+xml</dc:format>
        <dc:type
           rdf:resource="http://purl.org/dc/dcmitype/StillImage" />
      </cc:Work>
    </rdf:RDF>
  </metadata>
  <defs
     id="defs8" />
  <sodipodi:namedview
     inkscape:current-layer="svg4"
     inkscape:window-maximized="1"
     inkscape:window-y="-9"
     inkscape:window-x="-9"
     inkscape:cy="135.97773"
     inkscape:cx="160.63585"
     inkscape:zoom="2.075"
     showgrid="false"
     id="namedview6"
     inkscape:window-height="1001"
     inkscape:window-width="1920"
     inkscape:pageshadow="2"
     inkscape:pageopacity="0"
     guidetolerance="10"
     gridtolerance="10"
     objecttolerance="10"
     borderopacity="1"
     bordercolor="#666666"
     pagecolor="#ffffff"
     inkscape:document-rotation="0" />
  <path
     id="path2"
     d="m -38.54795,27.59425 9.666095,-5.562449 C -19.21576,16.552686 0.11642765,5.3028021 19.448613,6.4902914 38.780802,7.5944451 57.416032,13.602792 76.748212,12.498638 96.080402,11.311149 116.10954,3.2194905 135.44174,0.92784142 154.77395,-1.3638017 174.10613,9.886088 193.43829,15.365203 c 19.33221,5.562444 29.0131,4.358608 37.87611,1.655855 l 20.81742,-6.348207 -0.69695,30.254601 H 241.76878 193.43829 135.44174 77.445172 19.448613 -28.881855 -38.54795 Z"
     fill-opacity="1"
     fill="#fce40a"
     style="fill:#ade379;fill-opacity:1;stroke-width:0.204825"
     sodipodi:nodetypes="ccccscscccccccccc" />
  <path
     id="path2-1"
     d="m -38.994848,186.64159 6.85627,2.28899 c 6.85628,2.20343 20.528842,6.90977 34.3213486,9.1132 13.6525784,2.28899 27.3851104,2.28899 40.9777164,-3.42279 13.792505,-5.62623 17.83747,-7.38203 31.42021,-9.61511 13.742527,-2.25934 35.051633,8.46318 48.844153,8.46318 13.67256,0 25.29424,-10.75217 39.08674,-8.46318 13.6126,2.20341 31.56684,3.98888 45.15946,5.05851 13.77252,1.06962 27.38511,-7.91522 34.38132,-12.55738 l 6.79632,-4.55659 2.58618,-132.022968 c -186.413474,-11.885537 -8.74689,-20.721478 -289.98282,0 l -0.446898,118.331788 z"
     fill-opacity="1"
     fill="#fce40a"
     style="fill:#ade379;fill-opacity:1;stroke-width:0.206789"
     sodipodi:nodetypes="ccccsscccccccc" />
</svg>
